<svg xmlns="http://www.w3.org/2000/svg" xmlns:xlink="http://www.w3.org/1999/xlink" width="649.94" height="147.76"><defs><linearGradient id="b"><stop offset="0" stop-color="#939393"/><stop offset="1"/></linearGradient><linearGradient id="c"><stop offset="0" stop-color="#939393"/><stop offset="1"/></linearGradient><linearGradient id="d"><stop offset="0" stop-color="#b7b7b7"/><stop offset="1" stop-color="#a0a0a0" stop-opacity="0"/></linearGradient><linearGradient id="e"><stop offset="0" stop-color="#9d9d9d"/><stop offset="1" stop-color="#929292" stop-opacity="0"/></linearGradient><linearGradient id="f"><stop offset="0" stop-color="#c3c3c3"/><stop offset="1" stop-color="#c3c3c3" stop-opacity="0"/></linearGradient><linearGradient id="a"><stop offset="0" stop-color="#77d42b"/><stop offset="1" stop-color="#272718"/></linearGradient><filter x="-.29" width="1.58" y="-.6" height="2.2" id="n" color-interpolation-filters="sRGB"><feGaussianBlur stdDeviation="2.33"/></filter><filter x="-.33" width="1.66" y="-.69" height="2.39" id="o" color-interpolation-filters="sRGB"><feGaussianBlur stdDeviation="2.69"/></filter><linearGradient xlink:href="#a" id="p" gradientUnits="userSpaceOnUse" x1="120.55" y1="189.36" x2="134.18" y2="196.35"/><linearGradient xlink:href="#a" id="q" gradientUnits="userSpaceOnUse" x1="111.2" y1="195.69" x2="129.51" y2="205.07"/><linearGradient xlink:href="#b" id="m" gradientUnits="userSpaceOnUse" gradientTransform="matrix(.76186 0 0 .7354 -.257 -35.034)" x1="169.42" y1="180.07" x2="136.15" y2="250.47"/><linearGradient xlink:href="#c" id="l" gradientUnits="userSpaceOnUse" gradientTransform="matrix(.76186 0 0 .7354 -.257 -35.034)" x1="112.26" y1="195.24" x2="152.18" y2="254.19"/><linearGradient xlink:href="#d" id="k" gradientUnits="userSpaceOnUse" x1="144.06" y1="210.39" x2="189.34" y2="220.3" gradientTransform="matrix(1.4576 0 0 1.40697 -156.605 -199.726)"/><linearGradient xlink:href="#e" id="j" gradientUnits="userSpaceOnUse" x1="170.12" y1="257.99" x2="220.86" y2="243.11" gradientTransform="matrix(1.4576 0 0 1.40697 -156.605 -199.726)"/><linearGradient xlink:href="#f" id="i" gradientUnits="userSpaceOnUse" x1="158.12" y1="253.67" x2="207.11" y2="268.98" gradientTransform="matrix(1.4576 0 0 1.40697 -156.605 -199.726)"/><filter color-interpolation-filters="sRGB" x="-.2" width="1.39" y="-.57" height="2.13" id="g"><feGaussianBlur stdDeviation="9.17"/></filter><filter color-interpolation-filters="sRGB" x="-.03" width="1.06" y="-.19" height="1.38" id="h"><feGaussianBlur stdDeviation="4.31"/></filter></defs><path transform="matrix(.5438 0 0 .42842 -19.717 4.398)" d="M198.04 286.53c0 10.75-25 19.46-55.8 19.46-30.83 0-55.8-8.8-55.8-19.5s24.96-19.5 55.8-19.5c30.8 0 55.8 8.7 55.8 19.4z" opacity=".98" fill-opacity=".52" filter="url(#g)"/><g transform="translate(-235.234 -302.018) scale(1.58324)" fill-opacity=".59" filter="url(#h)" font-size="64.65" font-family="Trebuchet MS"><path d="M239.72 220.2c-1.17 0-3.03.06-5.6.2-2.54.14-3.9.23-4.1.22v41.3h5.32v-18c2.57.17 4.44.27 5.63.27l10.34 17.7h6.1l-11.2-19c2.1-.5 3.9-1.8 5.4-3.9s2.3-4.5 2.3-7.1c0-7.9-4.7-11.9-14-11.9zm-1.25 5.2c3.36 0 5.82.52 7.37 1.54 1.56 1 2.32 2.7 2.32 5 0 2.8-.7 4.72-2.16 5.8-1.45 1.1-3.8 1.67-6.97 1.67-1.2 0-2.4-.1-3.7-.2v-13.5c1.57-.2 2.6-.3 3.14-.3zm31.83 5.76c-3.47 0-6.47 1.34-9.02 4.03-2.85 3-4.28 7-4.28 12 0 4.7 1.38 8.6 4.16 11.4 2.5 2.5 5.52 3.8 9.1 3.8 2.47 0 4.72-.4 6.74-1.2 1.6-.6 2.78-1.4 3.56-2.2l-2.12-3.9c-1.93 1.8-4.3 2.7-7.2 2.7-2.52 0-4.6-.9-6.2-2.5-1.83-1.9-2.73-4.6-2.73-8.2h20.5c.3-1 .4-2.1.4-3.3 0-3.9-1.1-6.9-3.3-9.3-2.3-2.4-5.5-3.7-9.5-3.7zm.26 4.53c2.4 0 4.3.7 5.7 2.3 1.26 1.4 1.9 3.3 1.9 5.4h-15.72c.2-2.2 1.02-4 2.47-5.5 1.6-1.6 3.5-2.3 5.7-2.3zm14.04 24.4l1.77-5.1c2.8 1.9 5.07 2.9 6.8 2.9 3.1 0 4.66-1.4 4.66-4.2 0-2-1.5-3.7-4.5-5.2-2.33-1.2-3.9-2-4.7-2.6-.8-.6-1.5-1.3-2.1-2-.58-.8-1.03-1.6-1.33-2.4-.28-.9-.42-1.8-.42-2.7 0-2.5.85-4.4 2.55-5.8 1.7-1.4 3.9-2.1 6.65-2.1 2.07 0 4.68.7 7.82 2.1l-1.43 4.9c-2-1.7-4-2.5-6.02-2.5-1.2 0-2.22.3-3.05.9-.8.6-1.22 1.3-1.22 2.3 0 1.9 1.04 3.4 3.1 4.4l3.6 1.7c2.22 1.1 3.83 2.3 4.84 3.6 1 1.3 1.5 3.1 1.5 5.1 0 2.7-.88 4.8-2.67 6.3-1.78 1.5-4.26 2.3-7.42 2.3-3 0-5.8-.8-8.44-2.4m32.8-28.9c-3.9 0-7 1.4-9.3 4.3-2.4 2.8-3.6 6.6-3.6 11.3 0 4.8 1.1 8.6 3.4 11.4 2.2 2.9 5.4 4.3 9.4 4.3 3.9 0 7.1-1.4 9.4-4.2 2.3-2.8 3.4-6.7 3.4-11.5 0-4.9-1.2-8.7-3.4-11.5-2.3-2.8-5.4-4.1-9.5-4.1zm0 4.3c5 0 7.5 3.7 7.5 11.2 0 3.5-.7 6.3-2 8.3-1.4 2.1-3.2 3.1-5.6 3.1-5.1 0-7.6-3.8-7.6-11.3 0-3.5.7-6.2 2-8.2 1.4-2 3.2-3 5.5-3zm20.8-3.8v19.3c0 4.7 1.9 7 5.7 7 1.6 0 3.2-.5 4.5-1.5 1.4-1 2.3-2.2 2.7-3.5v-21.2h5v30.2H351v-4.2c-.58 1.2-1.7 2.3-3.44 3.3-1.7 1-3.34 1.5-5 1.5-3.1 0-5.46-1-7.13-2.9-1.64-1.9-2.46-4.6-2.46-8.1v-19.8h5m36.33 5.1c-1.1-.8-2.2-1.2-3.3-1.2-1.8 0-3.4.9-4.7 2.6-1.34 1.7-2 3.8-2 6.3v17.3h-5.04v-30.2h5.05v4.8c1.9-3.6 4.6-5.4 8.2-5.4.9 0 2.2.1 3.9.5l-2.1 5.2m23.1-2.7l-2.5 3.7c-.5-.5-1.4-1.1-2.7-1.5-1.3-.5-2.6-.7-3.8-.7-2.7 0-4.9 1-6.5 3-1.6 2-2.4 4.8-2.4 8.3s.9 6.22 2.5 8.1c1.7 1.82 3.9 2.74 6.9 2.74 2.3 0 4.6-.9 6.9-2.8l2 4.54c-2.7 1.9-6 2.8-10 2.8-3.8 0-7-1.4-9.6-4.1-2.5-2.8-3.8-6.5-3.8-11.26 0-4.8 1.3-8.7 4-11.6 2.7-2.9 6.3-4.38 10.8-4.38 1.5 0 3.1.3 4.8 1 1.7.6 3 1.3 3.8 2" style="text-align:start;line-height:125%"/><path d="M410.6 231.16c-3.5 0-6.52 1.34-9.07 4.03-2.85 3-4.25 7-4.25 12 0 4.7 1.38 8.6 4.16 11.4 2.5 2.5 5.52 3.8 9.1 3.8 2.47 0 4.7-.4 6.7-1.2 1.62-.6 2.83-1.4 3.6-2.2l-2.12-3.9c-1.93 1.8-4.34 2.7-7.22 2.7-2.53 0-4.58-.9-6.2-2.5-1.8-1.9-2.74-4.6-2.74-8.2h20.47c.27-1 .4-2.1.4-3.3 0-3.9-1.1-6.9-3.34-9.3-2.3-2.4-5.5-3.7-9.5-3.7zm.2 4.53c2.42 0 4.33.7 5.73 2.3 1.27 1.4 1.9 3.3 1.9 5.4H402.7c.18-2.2 1-4 2.46-5.5 1.52-1.6 3.4-2.3 5.65-2.3zm14.57 24.3l1.93-5.2c1 .8 2.22 1.4 3.7 1.9 1.47.5 2.8.7 3.97.7 2.06 0 3.73-.6 4.98-1.8 1.26-1.2 1.88-2.8 1.88-4.6 0-1.4-.35-2.7-1.06-3.9-.7-1.2-2.44-2.5-5.25-4l-3.13-1.6c-2.7-1.3-4.6-2.9-5.6-4.7-1.1-1.8-1.6-4-1.6-6.5 0-3.1 1-5.7 3.1-7.7 2-2.1 4.7-3.1 7.9-3.1 4.3 0 7.3.7 8.9 2.2l-1.6 4.9c-.7-.6-1.8-1.1-3.3-1.6-1.5-.5-2.8-.8-4.1-.8-1.8 0-3.3.5-4.3 1.6-1.1 1.1-1.6 2.5-1.6 4.2 0 1 .2 2 .6 2.9.3.8.9 1.6 1.5 2.1s2 1.4 4.1 2.4l3.2 1.6c2.6 1.3 4.5 2.9 5.5 4.8 1 1.8 1.6 4.2 1.6 7 0 3.1-1.2 5.7-3.6 7.9-2.3 2.1-5.4 3.2-9.4 3.2-3.5 0-6.4-.9-8.9-2.6m35.5-28.8c-2.7 0-5.1 1-7 3V231h-5v42.05h5V260c.4.55 1.3 1.1 2.7 1.53 1.3.4 2.6.7 3.8.7 4.3 0 7.5-1.5 9.8-4.4 2.3-2.9 3.4-6.7 3.4-11.26 0-5.15-1.1-9.08-3.4-11.75s-5.4-4-9.5-4zm-1.9 4.5c3.2 0 5.6.8 7.1 2.6 1.5 1.7 2.2 4.5 2.2 8.4 0 7.5-3.1 11.2-9.4 11.2-1 0-2-.2-3-.6-1.1-.5-1.7-1-2.1-1.5V238c.6-.65 1.4-1.24 2.4-1.77 1-.52 1.9-.77 2.6-.77zm27-4.6c-1.6 0-3.2.3-4.9.9-1.7.6-3 1.3-3.9 2.2l2.1 4.4c1.6-1.8 4.1-2.7 7.2-2.7 4.1 0 6.1 2.4 6.1 7.3-1.4-.5-2.6-.7-3.6-.7-3.9 0-7.2 1-9.7 3.2-2.5 2.1-3.8 4.6-3.8 7.7 0 2.6.8 4.7 2.4 6.4 1.6 1.7 3.6 2.6 5.8 2.6 4.2 0 7.2-1.3 9.3-4 .4 1.4 1.1 2.4 2.1 3.1 1 .6 2.6.9 4.6.9V259c-1.5-.9-2.2-2.67-2.2-5.3V243c0-4.4-1-7.54-2.9-9.5-1.9-2-4.9-3-9-3zm3.4 15.4c.6 0 1.7.2 3.3.5v7.3c-1.9 2.5-4.2 3.8-6.8 3.8-3.4 0-5.2-1.6-5.2-4.7 0-1.9.8-3.6 2.4-5 1.6-1.4 3.7-2.1 6.3-2.1zm33.9-12l-2.5 3.7c-.5-.6-1.4-1.1-2.7-1.6-1.3-.46-2.6-.7-3.8-.7-2.8 0-4.9 1.02-6.6 3.1-1.6 2-2.4 4.8-2.4 8.34s.8 6.23 2.4 8.1c1.6 1.83 3.9 2.75 6.8 2.75 2.3 0 4.5-.95 6.8-2.8l2 4.5c-2.7 1.86-6.1 2.8-10.1 2.8-3.9 0-7.1-1.4-9.6-4.16-2.57-2.74-3.8-6.5-3.8-11.2 0-4.8 1.3-8.67 3.9-11.6 2.7-2.9 6.3-4.36 10.8-4.36 1.5 0 3.1.32 4.8 1 1.7.64 3 1.3 3.8 2" style="text-align:start;line-height:125%"/><path d="M535.88 231.16c-3.5 0-6.5 1.34-9.04 4.03-2.84 3-4.28 7-4.28 12 0 4.7 1.38 8.6 4.16 11.4 2.5 2.5 5.52 3.8 9.1 3.8 2.47 0 4.73-.4 6.74-1.2 1.6-.6 2.8-1.4 3.57-2.2l-2.13-3.8c-1.93 1.8-4.3 2.7-7.2 2.7-2.52 0-4.6-.9-6.2-2.5-1.83-1.9-2.73-4.7-2.73-8.2h20.47c.27-1 .4-2.1.4-3.3 0-3.9-1.1-6.9-3.33-9.3-2.3-2.4-5.4-3.6-9.5-3.6zm.25 4.53c2.4 0 4.3.7 5.68 2.3 1.3 1.4 2 3.3 2 5.4H528c.2-2.2 1.02-4 2.47-5.5 1.52-1.6 3.4-2.3 5.65-2.3z" style="text-align:start;line-height:125%"/></g><g fill="#fff" font-size="64.65" font-family="Trebuchet MS"><path style="text-align:start;line-height:125%" d="M141.23 40.7c-1.85 0-4.8.1-8.86.33-4.03.2-6.17.35-6.48.35v65.36h8.4v-28.5c4 .3 7 .44 8.9.44l16.3 28.06h9.6l-17.8-30.08c3.2-.8 6.1-2.82 8.4-6.1 2.4-3.3 3.6-7.02 3.6-11.12 0-12.5-7.4-18.75-22.2-18.75zm-1.98 8.25c5.3 0 9.2.82 11.67 2.42 2.47 1.6 3.66 4.26 3.66 7.92 0 4.4-1.12 7.4-3.4 9.2-2.3 1.7-6 2.6-11.04 2.6-1.9 0-3.83-.2-5.84-.5V49.4c2.46-.3 4.1-.45 4.95-.45zm50.4 9.1c-5.5 0-10.26 2.13-14.3 6.38-4.5 4.77-6.76 11.12-6.76 19 0 7.6 2.1 13.62 6.5 18.1 3.9 4.1 8.7 6.15 14.4 6.15 3.9 0 7.5-.63 10.7-1.88 2.5-.96 4.4-2.1 5.6-3.42l-3.4-6.13c-3.1 2.83-6.8 4.25-11.4 4.25-4 0-7.3-1.3-9.9-3.9-2.9-3-4.3-7.32-4.3-12.92h32.4c.4-1.58.6-3.32.6-5.2 0-6.1-1.8-10.95-5.3-14.64-3.7-3.84-8.7-5.8-15.1-5.8zm.4 7.18c3.8 0 6.8 1.2 9 3.7 2.03 2.3 3.03 5.2 3.03 8.62h-24.9c.32-3.46 1.63-6.34 3.92-8.66 2.4-2.5 5.4-3.7 8.96-3.7zm22.22 38.67l2.82-8.03c4.4 3.1 8 4.64 10.7 4.64 4.9 0 7.4-2.2 7.4-6.6 0-3.1-2.4-5.8-7.2-8.1-3.7-1.8-6.2-3.1-7.5-4-1.3-.9-2.4-1.9-3.3-3.1-1-1.2-1.7-2.4-2.1-3.7-.5-1.3-.7-2.7-.7-4.3 0-3.9 1.3-7 4-9.2 2.6-2.2 6.2-3.3 10.5-3.3 3.3 0 7.4 1.1 12.4 3.3l-2.3 7.9c-3.2-2.7-6.4-4-9.6-4-1.9 0-3.5.5-4.9 1.5-1.3 1-1.9 2.2-1.9 3.6 0 3.1 1.6 5.4 4.9 7l5.7 2.8c3.5 1.7 6 3.7 7.6 5.8 1.6 2.2 2.4 4.9 2.4 8.2 0 4.3-1.4 7.7-4.3 10.1-2.9 2.4-6.8 3.6-11.8 3.6-4.8 0-9.2-1.2-13.4-3.7m52-45.9c-6.1 0-11 2.3-14.8 6.9-3.7 4.6-5.6 10.5-5.6 17.9 0 7.6 1.8 13.7 5.4 18.2 3.6 4.5 8.6 6.8 15 6.8 6.2 0 11.2-2.2 14.9-6.6 3.6-4.5 5.4-10.6 5.4-18.3 0-7.7-1.8-13.7-5.4-18.1-3.5-4.4-8.5-6.6-14.9-6.6zm0 7c7.9 0 11.9 6 11.9 17.8 0 5.6-1.1 10-3.2 13.2-2.1 3.2-5 4.8-8.8 4.8-8 0-12-6-12-18 0-5.5 1.1-9.8 3.2-13 2.2-3.1 5-4.7 8.7-4.7zm33-6v30.5c0 7.4 3 11.1 9 11.1 2.6 0 5-.8 7.2-2.4 2.2-1.6 3.6-3.4 4.3-5.6V59h7.9v47.8h-8v-6.6c-.9 1.87-2.7 3.6-5.4 5.17-2.7 1.55-5.4 2.32-7.9 2.32-5 0-8.7-1.5-11.4-4.5-2.6-3-3.9-7.3-3.9-12.9V58.9h8m57.6 8.2c-1.8-1.28-3.5-1.9-5.3-1.9-2.8 0-5.3 1.4-7.4 4.15-2.1 2.75-3.2 6.1-3.2 10v27.4H331V59h7.97v7.62c2.9-5.7 7.24-8.6 12.97-8.6 1.43 0 3.5.22 6.18.8l-3.3 8.2m36.55-4.26l-3.95 6c-.8-.87-2.25-1.7-4.32-2.47-2.05-.8-4.06-1.2-6.05-1.2-4.34 0-7.78 1.6-10.33 4.8-2.55 3.2-3.82 7.6-3.82 13.2s1.3 9.8 3.9 12.8c2.6 2.9 6.22 4.3 10.84 4.3 3.58 0 7.2-1.5 10.83-4.4l3.15 7.1c-4.28 2.9-9.6 4.4-15.9 4.4-6.14 0-11.2-2.2-15.2-6.6-4.02-4.4-6.02-10.3-6.02-17.8 0-7.6 2.07-13.8 6.22-18.4 4.17-4.6 9.86-6.9 17.1-6.9 2.3 0 4.83.5 7.54 1.6 2.72 1 4.72 2.1 6 3.2"/><path style="text-align:start;line-height:125%" d="M411.76 58.05c-5.5 0-10.32 2.13-14.35 6.38-4.5 4.77-6.7 11.12-6.7 19 0 7.6 2.2 13.62 6.6 18.1 4 4.1 8.8 6.15 14.4 6.15 3.9 0 7.5-.63 10.7-1.88 2.6-.96 4.5-2.1 5.7-3.42l-3.3-6.13c-3 2.83-6.8 4.25-11.4 4.25-4 0-7.2-1.3-9.8-3.9-2.8-3-4.3-7.32-4.3-12.92h32.4c.4-1.58.7-3.32.7-5.2 0-6.1-1.7-10.95-5.3-14.64-3.6-3.84-8.6-5.8-15-5.8zm.35 7.18c3.8 0 6.9 1.2 9.1 3.7 2 2.3 3 5.2 3 8.62h-24.9c.3-3.46 1.7-6.34 3.9-8.66 2.5-2.5 5.4-3.7 9-3.7zm23.1 38.54l3.1-8.2c1.6 1.2 3.6 2.23 5.9 3.07 2.4.8 4.5 1.2 6.3 1.2 3.3 0 5.9-.95 7.9-2.85 2-2 3-4.4 3-7.3 0-2.2-.5-4.3-1.7-6.1-1.1-1.9-3.8-4-8.3-6.2l-4.9-2.5c-4.2-2.1-7.1-4.6-8.8-7.4-1.6-2.9-2.5-6.3-2.5-10.3 0-4.9 1.7-8.9 4.9-12.2 3.3-3.2 7.4-4.8 12.5-4.8 6.8 0 11.6 1.2 14.2 3.5l-2.4 7.7c-1.1-.9-2.8-1.7-5.1-2.5s-4.4-1.2-6.4-1.2c-2.8 0-5.1.8-6.8 2.6-1.6 1.7-2.4 3.9-2.4 6.6 0 1.6.3 3.2.9 4.5.6 1.3 1.4 2.5 2.4 3.4 1.1.9 3.2 2.2 6.5 3.9l5.1 2.5c4.2 2.1 7.2 4.6 8.8 7.6 1.7 2.9 2.6 6.6 2.6 11.1 0 4.9-1.8 9.1-5.6 12.5-3.7 3.4-8.6 5.1-14.8 5.1-5.4 0-10.1-1.4-13.9-4.1m56-45.7c-4.3 0-7.9 1.6-11 4.8v-3.9h-7.9v66.5h8V104c.6.94 2 1.77 4.2 2.5 2.2.7 4.2 1.08 6.2 1.08 6.8 0 12-2.3 15.5-6.87 3.6-4.6 5.4-10.5 5.4-17.8 0-8.1-1.8-14.4-5.3-18.6-3.6-4.2-8.5-6.3-14.9-6.3zm-3 7.2c5.2 0 9 1.3 11.3 4.1 2.4 2.8 3.5 7.2 3.5 13.2 0 11.9-4.9 17.9-14.8 17.9-1.5 0-3.1-.4-4.7-1.1-1.6-.7-2.7-1.5-3.2-2.3V69.3c1-1.04 2.3-1.98 3.9-2.82 1.6-.83 3-1.23 4.1-1.23zM531 58c-2.44 0-4.98.5-7.67 1.45-2.64.9-4.75 2.03-6.26 3.34l3.36 7c2.7-2.9 6.54-4.3 11.52-4.3 6.48 0 9.74 3.8 9.74 11.6-2.2-.8-4.1-1.2-5.8-1.2-6.2 0-11.3 1.7-15.3 5s-6 7.4-6 12.3c0 4 1.3 7.4 3.8 10.1 2.6 2.7 5.7 4.1 9.2 4.1 6.6 0 11.4-2.1 14.6-6.4.7 2.2 1.8 3.8 3.4 4.8 1.6 1 4.1 1.5 7.3 1.5V103c-2.4-1.4-3.5-4.2-3.5-8.4v-17c0-6.88-1.5-11.9-4.5-15.05-2.9-3.1-7.6-4.7-14.1-4.7zm5.4 24.35c1 0 2.77.3 5.3.9V94.8c-3.1 4.1-6.7 6.1-10.75 6.1-5.5 0-8.26-2.45-8.26-7.42 0-3 1.2-5.62 3.8-7.82 2.5-2.2 5.8-3.3 9.9-3.3zm53.4-19.56l-3.96 5.9c-.82-.9-2.26-1.7-4.33-2.5-2-.8-4-1.2-6-1.2-4.3 0-7.7 1.6-10.3 4.8-2.5 3.2-3.8 7.6-3.8 13.2s1.3 9.8 3.9 12.8c2.6 2.9 6.2 4.4 10.9 4.4 3.6 0 7.2-1.5 10.9-4.4l3.2 7.1c-4.3 2.9-9.6 4.4-15.9 4.4-6.1 0-11.2-2.2-15.2-6.6s-6-10.3-6-17.8c0-7.6 2.1-13.8 6.2-18.4 4.2-4.6 9.9-6.9 17.1-6.9 2.3 0 4.9.5 7.6 1.6 2.8 1 4.8 2.1 6 3.2"/><path style="text-align:start;line-height:125%" d="M610.1 58.05c-5.5 0-10.26 2.13-14.3 6.38-4.5 4.77-6.77 11.12-6.77 19 0 7.6 2.2 13.62 6.6 18.1 3.93 4.1 8.73 6.15 14.38 6.15 4 0 7.5-.63 10.7-1.88 2.6-.96 4.4-2.1 5.7-3.42l-3.4-6.13c-3 2.83-6.8 4.25-11.4 4.25-4 0-7.3-1.3-9.8-3.9-2.9-3-4.3-7.32-4.3-12.92h32.4c.4-1.58.7-3.32.7-5.2 0-6.1-1.7-10.95-5.3-14.64-3.6-3.84-8.6-5.8-15.1-5.8zm.4 7.18c3.8 0 6.8 1.2 9 3.7 2.03 2.3 3.03 5.2 3.03 8.62h-24.9c.32-3.46 1.63-6.34 3.92-8.66 2.4-2.5 5.4-3.7 8.96-3.7z"/></g><path d="M73.7 128.98l.17 42.63 34.56 14.1v-45.4z" fill="url(#i)" fill-rule="evenodd" transform="translate(-53.38 -64.954)"/><path d="M143.36 129.44l-34.93 10.87v45.4l34.85-14-.13-41.9z" fill="url(#j)" fill-rule="evenodd" transform="translate(-53.38 -64.954)"/><path d="M73.87 128.96l-20.5-27.78L90 91.5l19.2 27.36-35.32 10.1z" fill="url(#k)" fill-rule="evenodd" transform="translate(-53.38 -64.954)"/><path d="M73.7 128.98l34.73-10.63v21.96z" fill="url(#l)" fill-rule="evenodd" transform="translate(-53.38 -64.954)"/><path d="M108.43 118.35l34.72 11.34-34.72 10.6z" fill="url(#m)" fill-rule="evenodd" transform="translate(-53.38 -64.954)"/><path transform="matrix(.82753 0 0 1.18732 -47.398 -202.326)" d="M119 211.54c0 2.57-4.36 4.66-9.72 4.66-5.37 0-9.72-2.1-9.72-4.66 0-2.57 4.35-4.65 9.72-4.65 5.36 0 9.7 2 9.7 4.6z" opacity=".64" fill-opacity=".52" filter="url(#n)"/><path d="M119 211.54c0 2.57-4.36 4.66-9.72 4.66-5.37 0-9.72-2.1-9.72-4.66 0-2.57 4.35-4.65 9.72-4.65 5.36 0 9.7 2 9.7 4.6z" transform="matrix(.90078 0 0 1.81474 -65.685 -349.95)" opacity=".64" fill-opacity=".52" filter="url(#o)"/><g fill-rule="evenodd"><path d="M37.18 53.44l9.26-10.98-5.27-11-9.55 11.1 5.56 10.88z" fill="#59a020"/><path d="M20.97 37.86l10.73 4.62 9.55-11.1-11.2-3.92-9.08 10.4z" fill="#b1e785"/><path d="M37.33 53.4l-10.77-4.94L21.1 37.9l10.54 4.44z" fill="#93dd57"/></g><g fill-rule="evenodd"><path d="M89.77 40.64l3-13.45-10.1-6.4-2.82 13.4z" fill="#60ab22"/><path d="M67.8 35.68l12.05-1.42 2.83-13.47-12.14 2z" fill="#a0e16b"/><path d="M89.77 40.64l-11.95 1.6L67.8 35.7l12.05-1.42z" fill="#427818"/></g><g fill-rule="evenodd"><path d="M40.87 17.96l11.92 9.16 10.7-6.32-12.8-9.3z" fill="#427818"/><path d="M54.2 0l-3.4 11.58 12.75 9.2L66 8.82z" fill="#5faa22"/><path d="M40.87 17.96l3.23-11.3L54.2.16l-3.4 11.4z" fill="#9ce065"/></g><g fill-rule="evenodd"><path d="M130.8 202.98l2.7-13.73-9.56-6.52-2.9 13.98 9.75 6.3z" fill="url(#p)" transform="matrix(.47354 .91264 -.9247 .46736 181.417 -142.795)"/><path d="M50.27 50.04l6.7 9.53 14.3-3.88-7.5-9.3-13.5 3.6z" fill="#8ddb4c"/><path d="M130.7 202.76l-11.2 1.35-9.5-6 10.95-1.5 9.75 6.3z" fill="url(#q)" transform="matrix(.47354 .91264 -.9247 .46736 181.417 -142.795)"/></g><g fill-rule="evenodd"><path d="M33.8 13.7L23.6 3.86l-11.8 4.9 10.63 9.9z" fill="#59a020"/><path d="M17.5 29.3l5.1-10.6-10.78-9.95L7.1 19.8z" fill="#a0e26c"/><path d="M33.8 13.7l-5.42 10.4-10.9 5.2 4.97-10.63z" fill="#427817"/></g></svg>